<?xml version="1.0" standalone="no"?>
<!DOCTYPE svg PUBLIC "-//W3C//DTD SVG 20010904//EN"
 "http://www.w3.org/TR/2001/REC-SVG-20010904/DTD/svg10.dtd">
<svg version="1.0" xmlns="http://www.w3.org/2000/svg"
 width="500.000000pt" height="500.000000pt" viewBox="0 0 500.000000 500.000000"
 preserveAspectRatio="xMidYMid meet">

<g transform="translate(0.000000,500.000000) scale(0.100000,-0.100000)"
fill="#000000" stroke="none">
<path d="M1860 2725 l0 -195 45 0 45 0 1 123 1 122 49 -103 c48 -102 49 -103
81 -100 30 3 36 10 83 103 l50 100 3 -122 3 -123 44 0 45 0 0 195 0 195 -58 0
-58 0 -54 -109 c-29 -61 -57 -108 -60 -106 -4 2 -30 52 -59 110 l-52 105 -54
0 -55 0 0 -195z"/>
<path d="M2501 2898 c-5 -13 -43 -101 -84 -195 l-75 -173 52 0 c50 0 52 1 65
35 l12 35 89 0 88 0 12 -35 c11 -34 13 -35 65 -35 l53 0 -45 108 c-24 59 -61
146 -80 195 l-36 87 -54 0 c-46 0 -55 -3 -62 -22z m85 -140 c9 -29 19 -59 22
-65 3 -10 -11 -13 -51 -13 l-55 0 26 65 c14 36 29 65 33 65 4 0 15 -24 25 -52z"/>
<path d="M2820 2725 l0 -195 45 0 45 0 1 118 0 117 50 -97 c47 -94 51 -98 82
-98 31 1 34 5 78 100 l46 100 8 -120 7 -120 39 0 39 0 0 195 0 195 -53 0 -53
0 -54 -110 c-30 -60 -57 -110 -60 -110 -3 0 -30 50 -60 110 l-54 110 -53 0
-53 0 0 -195z"/>
<path d="M3340 2726 l0 -196 45 0 45 0 0 116 c0 68 4 114 9 112 9 -3 84 -98
149 -190 24 -33 32 -37 70 -38 l42 0 0 195 0 195 -45 0 -45 0 -1 -117 c0 -109
-1 -116 -15 -96 -9 12 -48 64 -88 115 -71 92 -72 93 -119 96 l-47 3 0 -195z"/>
<path d="M3780 2783 c0 -152 10 -188 63 -227 42 -31 151 -35 204 -7 67 34 83
80 83 239 l0 132 -50 0 -50 0 0 -129 c0 -115 -2 -131 -21 -155 -27 -34 -77
-36 -107 -3 -20 21 -22 34 -22 155 l0 132 -50 0 -50 0 0 -137z"/>
<path d="M4200 2725 l0 -195 50 0 49 0 3 115 3 116 85 -113 c83 -110 86 -113
128 -116 l42 -3 0 195 0 196 -45 0 -44 0 -3 -115 -3 -114 -85 114 -85 115 -47
0 -48 0 0 -195z"/>
<path d="M1930 2390 c0 -10 -79 -193 -101 -232 -7 -14 -5 -18 10 -18 11 0 23
12 31 30 12 29 14 30 84 30 70 0 72 -1 83 -30 6 -17 19 -30 28 -30 20 0 19 4
-44 145 -38 84 -54 111 -70 113 -12 2 -21 -2 -21 -8z m59 -108 l21 -52 -56 0
c-62 0 -62 -3 -22 90 22 50 23 49 57 -38z"/>
<path d="M2165 2381 c-45 -27 -65 -63 -65 -117 0 -41 5 -51 39 -85 33 -33 45
-39 81 -39 56 0 115 27 99 46 -9 11 -15 11 -32 -1 -25 -17 -80 -20 -108 -5
-22 12 -49 61 -49 89 0 76 96 129 156 86 20 -14 34 -11 34 6 0 15 -58 39 -92
39 -18 0 -47 -8 -63 -19z"/>
<path d="M2441 2358 c-53 -118 -91 -206 -91 -212 0 -19 29 -1 40 24 12 29 14
30 85 30 71 0 73 -1 85 -30 7 -18 20 -30 30 -30 17 0 17 3 6 28 -8 15 -33 73
-57 129 -51 118 -68 128 -98 61z m88 -120 c1 -5 -24 -8 -55 -8 -41 0 -55 3
-51 13 3 6 16 36 28 66 l23 54 27 -59 c15 -32 28 -62 28 -66z"/>
<path d="M2650 2270 l0 -130 65 0 c116 0 169 41 169 132 0 82 -63 128 -174
128 l-60 0 0 -130z m150 85 c59 -31 69 -107 21 -156 -26 -25 -37 -29 -85 -29
l-56 0 0 100 0 100 45 0 c26 0 59 -7 75 -15z"/>
<path d="M2940 2270 l0 -130 90 0 c73 0 90 3 90 15 0 12 -15 15 -76 15 l-75 0
3 43 3 42 63 -3 c51 -3 62 -1 62 12 0 12 -14 16 -62 18 l-63 3 0 40 0 40 73 3
c55 2 72 6 72 17 0 12 -18 15 -90 15 l-90 0 0 -130z"/>
<path d="M3180 2271 c0 -108 3 -131 15 -131 11 0 15 20 17 103 l3 102 45 -85
c25 -47 52 -85 59 -85 7 0 33 38 57 84 l44 84 0 -102 c0 -83 3 -101 15 -101
13 0 15 21 15 130 0 118 -2 130 -18 130 -13 0 -31 -26 -62 -90 -24 -49 -47
-90 -50 -90 -3 0 -25 39 -50 88 -34 66 -51 88 -67 90 -23 3 -23 3 -23 -127z"/>
<path d="M3511 2378 c6 -12 29 -53 50 -90 28 -47 39 -78 39 -107 0 -30 4 -41
15 -41 11 0 15 12 15 44 0 33 11 63 45 124 50 89 51 92 31 92 -8 0 -31 -29
-51 -65 -20 -36 -39 -65 -43 -65 -4 1 -23 29 -43 63 -20 34 -44 64 -54 65 -14
3 -15 1 -4 -20z"/>
</g>
</svg>
